# xmcd CD database file
#
# Track frame offsets:
#	187
#	1850
#	24562
#	47067
#	72620
#	92942
#	116607
#	139087
#	163597
#	182250
#	203072
#	233490
#	239105
#	264080
#
# Disc length: 3590 seconds
#
# Revision: 0
# Processed by: cddbd v1.5.2PL0 Copyright (c) Steve Scherf et al.
# Submitted via: CDex 1.51
#
DISCID=b60e040e
DTITLE=Ronny Jordan - Light To Dark
DYEAR=1996
DGENRE=Jazz
TTITLE0=Into The Light
TTITLE1=Homage
TTITLE2=It's You
TTITLE3=The Law
TTITLE4=Fooled
TTITLE5=Closer Than Close
TTITLE6=I See You
TTITLE7=Downtime
TTITLE8=Deep In Your Heart
TTITLE9=Laidback
TTITLE10=Light To Dark
TTITLE11=Last Goodbye
TTITLE12=Inside
TTITLE13=Fooled[Reprise]
EXTD=YEAR: 1996
EXTT0=
EXTT1=
EXTT2=
EXTT3=
EXTT4=
EXTT5=
EXTT6=
EXTT7=
EXTT8=
EXTT9=
EXTT10=
EXTT11=
EXTT12=
EXTT13=
PLAYORDER=
